# xmcd
# Track frame offsets:
# 150
# 15339
# 33166
# 47922
# 65696
# 78173
# 104288
# 120908
# 147046
# 159371
# 175087
#
# Disc length: 2581 seconds
# Revision: 0
# Processed by: cddbd v1.5.1PL0 Copyright (c) Steve Scherf et al.
# Submitted via: VisiTrax 2.9.10.228 - For more info visit www.synapsa.com
#
DISCID=7a0a130b
DTITLE=Nicholson.Lorin. - Summer Rain.
DYEAR=2003
DGENRE=Aust.
TTITLE0=Summer Rain
TTITLE1=Everything To Me.
TTITLE2=Those Endearing Young charms.
TTITLE3=Annie's Song.
TTITLE4=Yesterday.
TTITLE5=Canon In D.
TTITLE6=Sailing North.
TTITLE7=Where Do I Begin.
TTITLE8=Ben.
TTITLE9=A Minor Disturbance.
TTITLE10=Time has Come. The.
EXTD=
EXTT0=
EXTT1=
EXTT2=
EXTT3=
EXTT4=
EXTT5=
EXTT6=
EXTT7=
EXTT8=
EXTT9=
EXTT10=
PLAYORDER=
